<svg width="162" height="195" viewBox="0 0 162 195" fill="none" xmlns="http://www.w3.org/2000/svg">
<path d="M76.7304 104.538L100.97 134.212C105.634 139.79 105.454 140.718 105.03 141.376L113.92 126.449C114.295 125.743 113.246 124.252 111.729 122.367L111.25 121.771L86.2248 91.1291L86.0811 90.9454L61.8391 61.2664C57.1809 55.6933 57.586 54.6254 57.8504 54.0578L48.9972 68.9328C48.6014 69.6353 49.5656 71.2274 51.0945 73.1184L51.5704 73.7091L76.5834 104.353L76.727 104.539M88.864 168.739C88.864 168.739 89.172 168.304 88.9759 167.591C88.6853 166.795 87.8694 165.683 86.8169 164.388L86.3443 163.794L61.3233 133.154L61.1636 132.963L36.9406 103.292C32.2731 97.7173 32.6838 96.6457 32.9396 96.0762L24.0931 110.957C23.6841 111.657 24.6663 113.253 26.1872 115.143L26.6598 115.732L51.6698 146.372L51.8135 146.562L76.0625 176.243C80.5042 181.576 80.5571 182.646 80.178 183.319L88.8516 168.739M92.646 162.308L92.5983 162.388C92.611 162.354 92.6321 162.324 92.646 162.308ZM101.355 147.648C101.451 147.487 101.575 147.11 101.435 146.575C101.144 145.778 100.315 144.673 99.2758 143.376L98.7999 142.784L73.7789 112.14L73.6353 111.953L49.3863 82.279C44.7369 76.7095 45.1281 75.638 45.3979 75.0654L36.5478 89.9494C36.1469 90.6456 37.1067 92.2459 38.6419 94.1283L39.1129 94.7238L64.1249 125.366L64.2846 125.548L88.5166 155.229C92.9845 160.569 93.0251 161.643 92.646 162.308L101.355 147.648ZM129.99 99.2746L129.942 99.3544C129.959 99.3206 129.976 99.3067 129.99 99.2746ZM136.631 80.3456L136.148 79.75L111.128 49.108L110.984 48.9213L86.735 19.2473C82.0889 13.6743 82.4905 12.564 82.725 12L73.9493 26.764C73.8695 26.93 73.7545 27.2765 73.8695 27.7603C74.1217 28.5874 74.9233 29.7694 75.9933 31.0969L76.4595 31.6893L101.48 62.3343L101.624 62.5117L125.861 92.1897C130.317 97.5335 130.352 98.6118 129.977 99.2765L138.814 84.4355C139.193 83.7234 138.135 82.236 136.618 80.3483M124.186 101.354L123.705 100.762L98.6774 70.118L98.5338 69.9296L74.3067 40.2606C69.6431 34.6844 70.0486 33.5776 70.2865 33.0168L61.5107 47.7767C61.4309 47.9364 61.3177 48.2733 61.4309 48.7475C61.6671 49.581 62.4688 50.7724 63.5584 52.1102L64.031 52.693L89.047 83.34L89.1907 83.5238L113.424 113.202C117.888 118.547 117.915 119.619 117.553 120.28L126.385 105.438C126.759 104.726 125.716 103.246 124.195 101.352M117.544 120.281L117.496 120.377C117.509 120.344 117.544 120.33 117.544 120.281Z" fill="url(#paint0_linear_2402_3883)"/>
<path d="M131 83.1071L97.5664 69.1961L97.3539 69.1163L62.8309 54.7543L62.296 54.5435C61.2214 54.157 58.9119 53.4386 57.9373 53.9847C57.8254 54.0485 57.7219 54.1634 57.6691 54.2627L48.9778 68.9337C49.3432 68.477 50.402 67.6308 56.7296 70.3579L90.1816 84.2689L90.389 84.3487L124.909 98.7077L125.398 98.9041C126.442 99.2843 128.819 100.035 129.805 99.4773C129.917 99.4135 130.176 99.0878 130.232 98.9903L138.782 84.5253C138.416 84.982 137.327 85.8218 130.998 83.1026M118.564 104.118L85.1213 90.2106L84.9168 90.1308L50.3758 75.7738L49.8377 75.5584C48.7807 75.1799 46.4586 74.4535 45.479 75.0043C45.3671 75.0681 45.2665 75.183 45.2234 75.2789L36.529 89.9549C36.9075 89.4935 37.9516 88.644 44.2804 91.3728L77.7254 105.291L77.9312 105.371L112.463 119.733L112.957 119.929C113.996 120.304 116.367 121.06 117.351 120.498C117.463 120.434 117.726 120.105 117.779 120.014L126.338 105.548C125.96 106.009 124.879 106.848 118.563 104.127M106.108 125.129L72.6652 111.216L72.4577 111.136L37.9257 96.7759L37.3844 96.5604C36.3306 96.1739 34.004 95.4539 33.0257 96.0016C32.9138 96.0654 32.8183 96.1756 32.7735 96.2859L24.0737 110.956C24.4489 110.493 25.5011 109.647 31.8309 112.377L65.2789 126.284L65.4771 126.364L100.005 140.724L100.508 140.92C101.54 141.294 103.918 142.052 104.914 141.485C105.01 141.438 105.278 141.093 105.32 140.998L113.884 126.535C113.52 126.997 112.421 127.843 106.109 125.114" fill="url(#paint1_linear_2402_3883)"/>
<defs>
<linearGradient id="paint0_linear_2402_3883" x1="-183.24" y1="-71.8924" x2="-175.865" y2="-76.1981" gradientUnits="userSpaceOnUse">
<stop stop-color="#898A8E"/>
<stop offset="0.096318" stop-color="#898A8E"/>
<stop offset="0.5" stop-color="#E5E3E2"/>
<stop offset="0.6315" stop-color="#E5E3E2"/>
<stop offset="1" stop-color="#898A8E"/>
</linearGradient>
<linearGradient id="paint1_linear_2402_3883" x1="-182.79" y1="-71.9529" x2="-173.809" y2="-71.9529" gradientUnits="userSpaceOnUse">
<stop stop-color="#154281"/>
<stop offset="0.20224" stop-color="#154281"/>
<stop offset="0.50562" stop-color="#7284B9"/>
<stop offset="0.80336" stop-color="#154281"/>
<stop offset="1" stop-color="#154281"/>
</linearGradient>
</defs>
</svg>
